<svg xmlns="http://www.w3.org/2000/svg" width="100.13px" height="56.19px">
    <path fill="#EC2727" d="M23.56,0.367h-7.558c-7.425,0-13.724,5.635-13.724,16.574c0,6.562,3.05,11.402,8.486,13.79L0.621,49.028 c-0.332,0.598,0,1.061,0.53,1.061h4.707c0.397,0,0.663-0.133,0.796-0.463l9.215-17.967h3.314v17.967 c0,0.197,0.199,0.463,0.464,0.463h4.111c0.398,0,0.53-0.198,0.53-0.528V1.03C24.289,0.566,24.023,0.367,23.56,0.367z M19.184,27.417 H16.4c-4.375,0-8.619-3.183-8.619-11.139c0-8.286,3.978-11.668,8.022-11.668h3.381V27.417z"/>
    <path fill="none" d="M64.189,25.667c-0.464,7.956-1.79,14.454-5.171,20.221h9.612V21.025h-4.242 C64.389,22.152,64.322,23.942,64.189,25.667z"/>
    <path fill="none" d="M89.117,20.164c-2.321,0-3.713,2.851-4.311,8.486c-0.133,1.061-0.133,2.057-0.133,2.057 s2.387-0.267,3.911-0.267h4.376c0,0,0-1.192-0.066-2.254C92.564,23.081,91.238,20.164,89.117,20.164z"/>
    <path fill="#010101" d="M48.742,16.85h-4.11c-0.331,0-0.53,0.265-0.53,0.464v12.663h-7.624V17.313c0-0.332-0.132-0.464-0.464-0.464 h-4.11c-0.332,0-0.53,0.198-0.53,0.464v32.221c0,0.33,0.133,0.529,0.464,0.529h4.177c0.265,0,0.464-0.199,0.464-0.529V34.153h7.624 v15.381c0,0.33,0.199,0.529,0.53,0.529h4.11c0.332,0,0.464-0.266,0.464-0.529V17.313C49.206,17.047,49.008,16.85,48.742,16.85z"/>
    <path fill="#010101" d="M142.592,47.942l-0.529-2.254c-0.065-0.199-0.133-0.266-0.332-0.266c-0.332,0-2.121,0.729-4.707,0.729 c-5.039,0-7.49-4.84-7.49-12.529c0-6.762,2.056-13.458,5.503-13.458c0.928,0,2.055,0.266,3.845,1.923 c0.199,0.199,0.331,0.266,0.53,0.266c0.198,0,0.397-0.133,0.597-0.465l1.79-2.916c0.134-0.199,0.199-0.398,0.199-0.598 c0-0.265-0.267-0.464-0.664-0.662c-2.718-1.393-4.574-1.658-6.165-1.658c-6.23,0-11.07,7.426-11.07,19.028 c0,10.01,4.641,15.776,11.271,15.776c2.784,0,5.769-1.323,6.961-2.188C142.592,48.472,142.658,48.208,142.592,47.942z"/>
    <path fill="#010101" d="M113.779,31.831l7.955-14.518c0.133-0.199,0.065-0.464-0.199-0.464h-3.912c-1.126,0-1.523,0.397-1.922,1.26 l-5.967,12.397c-0.332,0.729-0.662,1.193-0.994,1.392V17.314c0-0.266-0.133-0.464-0.398-0.464h-4.309 c-0.199,0-0.398,0.198-0.398,0.464v32.286c0,0.199,0.133,0.465,0.398,0.465h4.309c0.266,0,0.398-0.199,0.398-0.465V32.96 c0.199,0.131,0.332,0.33,0.464,0.597l7.558,15.514c0.398,0.795,0.994,0.994,1.856,0.994h4.243c0.266,0,0.332-0.267,0.199-0.465 L113.779,31.831z"/>
    <path fill="#010101" d="M75.791,45.888h-0.795c-0.995,0-1.26-0.398-1.26-1.193V17.313c0-0.332-0.133-0.464-0.398-0.464H60.079 c-0.332,0-0.53,0.198-0.53,0.464V19.7c0,8.021-0.464,18.364-4.707,26.188h-1.459c-0.397,0-0.53,0.196-0.53,0.528 c0,0,0,7.955,0,9.681c0,0.331,0.266,0.463,0.464,0.463H56.5c0.729,0,0.994-0.529,0.994-0.994v-5.502h14.188v6.033 c0,0.266,0.199,0.463,0.464,0.463h3.381c0.397,0,0.796-0.33,0.796-0.994v-9.147C76.32,46.085,76.123,45.888,75.791,45.888z  M68.631,45.888h-9.612c3.381-5.768,4.707-12.266,5.171-20.221c0.133-1.724,0.199-3.514,0.199-4.641h4.242V45.888L68.631,45.888z"/>
    <path fill="#010101" d="M89.314,16.053c-7.16,0-10.342,9.017-10.342,18.829c0,10.011,4.508,15.978,11.139,15.978 c3.248,0,6.099-1.26,7.558-2.188c0.265-0.133,0.331-0.33,0.265-0.596l-0.529-2.254c-0.066-0.266-0.198-0.398-0.53-0.398 c-0.265,0-2.188,0.729-4.906,0.729c-5.104,0-7.489-4.44-7.489-10.274c0-0.795,0-1.568,0-1.568s2.584,0.309,4.108,0.309h9.681v-2.785 C98.266,21.557,94.619,16.053,89.314,16.053z M88.586,30.44c-1.523,0-3.911,0.266-3.911,0.266s0-0.996,0.132-2.056 c0.598-5.636,1.989-8.486,4.312-8.486c2.121,0,3.446,2.917,3.778,8.022c0.065,1.061,0.065,2.254,0.065,2.254H88.586z"/>
</svg>